<svg xmlns="http://www.w3.org/2000/svg" xmlns:xlink="http://www.w3.org/1999/xlink" width="20" height="14" viewBox="0 0 20 14">
  <defs>
    <clipPath id="clip-path">
      <rect width="20" height="14" fill="none"/>
    </clipPath>
    <clipPath id="clip-path-2">
      <rect id="Прямоугольник_2274" data-name="Прямоугольник 2274" width="20" height="14" fill="#992118"/>
    </clipPath>
  </defs>
  <g id="Повторяющаяся_сетка_28" data-name="Повторяющаяся сетка 28" clip-path="url(#clip-path)">
    <g id="Сгруппировать_8968" data-name="Сгруппировать 8968" clip-path="url(#clip-path-2)">
      <path id="Контур_27895" data-name="Контур 27895" d="M.7,9.328V.853A.854.854,0,0,1,1.559,0h8.5a.854.854,0,0,1,.856.853V9.328a.285.285,0,0,1-.285.284H.988A.285.285,0,0,1,.7,9.328m6.868,2.9a1.776,1.776,0,1,1-1.776-1.769,1.772,1.772,0,0,1,1.776,1.769m-.888,0a.888.888,0,1,0-.888.884.886.886,0,0,0,.888-.884M4.266,10.463H.286A.285.285,0,0,0,0,10.747v.862a.285.285,0,0,0,.285.284H3.476a2.331,2.331,0,0,1,.79-1.431m12.6,1.769a1.776,1.776,0,1,1-1.776-1.769,1.772,1.772,0,0,1,1.776,1.769m-.888,0a.888.888,0,1,0-.888.884.886.886,0,0,0,.888-.884M20,10.747v.862a.285.285,0,0,1-.285.284H17.405a2.345,2.345,0,0,0-4.638,0H8.114a2.331,2.331,0,0,0-.79-1.431h4.412V2.332a.57.57,0,0,1,.571-.569H15a2.285,2.285,0,0,1,1.892,1L18.63,5.328A2.268,2.268,0,0,1,19.021,6.6v3.863h.695a.285.285,0,0,1,.285.284m-2.9-5.354L15.717,3.428a.286.286,0,0,0-.233-.121H13.317a.285.285,0,0,0-.285.284V5.557a.285.285,0,0,0,.285.284h3.555a.284.284,0,0,0,.233-.448" transform="translate(-0.001 0)" fill="#992118"/>
    </g>
  </g>
</svg>
