<svg xmlns="http://www.w3.org/2000/svg" xmlns:xlink="http://www.w3.org/1999/xlink" width="7.416" height="3.376" viewBox="0 0 7.416 3.376">
  <defs>
    <clipPath id="clip-path">
      <rect width="7.416" height="3.376" fill="none"/>
    </clipPath>
  </defs>
  <g id="Повторяющаяся_сетка_9" data-name="Повторяющаяся сетка 9" clip-path="url(#clip-path)">
    <g transform="translate(-1437.98 -990.02)">
      <g id="_" data-name=" " transform="translate(1462.086 896.827) rotate(-90)" style="isolation: isolate">
        <g id="Сгруппировать_9050" data-name="Сгруппировать 9050" style="isolation: isolate">
          <path id="Контур_27913" data-name="Контур 27913" d="M-93.312-17.9a.726.726,0,0,1,.109.5.505.505,0,0,1-.333.361l-.73.342-2.3-3.565v-.288l2.3-3.563.73.341a.507.507,0,0,1,.333.365.735.735,0,0,1-.109.508l-1.241,2.116a1.384,1.384,0,0,1-.288.378,1.363,1.363,0,0,1,.288.377Z" fill="#777a82"/>
        </g>
      </g>
    </g>
  </g>
</svg>
